<svg  fill="none" xmlns="http://www.w3.org/2000/svg">
<symbol id='main' viewBox="0 0 349 349">
<mask id="path-1-inside-1_116_0" fill="white">
<path fill-rule="evenodd" clip-rule="evenodd" d="M147.685 216.787L50.8128 49C48.5034 45 51.3902 40 56.009 40L293.153 40C297.772 40 300.659 45 298.35 49L205.414 209.969V258.392C205.414 259.776 204.84 261.098 203.829 262.044L156.1 306.674C152.905 309.661 147.685 307.396 147.685 303.022V216.787Z"/>
</mask>
<path d="M147.685 216.787H162.685V212.768L160.675 209.287L147.685 216.787ZM50.8128 49L37.8224 56.5L37.8224 56.5L50.8128 49ZM56.009 40L56.009 25L56.009 40ZM293.153 40L293.153 25L293.153 40ZM298.35 49L285.359 41.5L285.359 41.5L298.35 49ZM205.414 209.969L192.423 202.469L190.414 205.95V209.969H205.414ZM203.829 262.044L193.584 251.087L193.584 251.087L203.829 262.044ZM156.1 306.674L166.344 317.63L166.344 317.63L156.1 306.674ZM160.675 209.287L63.8032 41.5L37.8224 56.5L134.694 224.287L160.675 209.287ZM63.8032 41.5C67.2673 47.5 62.9371 55 56.009 55L56.009 25C39.8432 25 29.7395 42.5 37.8224 56.5L63.8032 41.5ZM56.009 55L293.153 55L293.153 25L56.009 25L56.009 55ZM293.153 55C286.225 55 281.895 47.5 285.359 41.5L311.34 56.5C319.423 42.5001 309.319 25 293.153 25L293.153 55ZM285.359 41.5L192.423 202.469L218.404 217.469L311.34 56.5L285.359 41.5ZM220.414 258.392V209.969H190.414V258.392H220.414ZM214.074 273C218.118 269.218 220.414 263.929 220.414 258.392H190.414C190.414 255.623 191.562 252.978 193.584 251.087L214.074 273ZM166.344 317.63L214.074 273L193.584 251.087L145.855 295.717L166.344 317.63ZM132.685 303.022C132.685 320.518 153.565 329.58 166.344 317.63L145.855 295.717C152.244 289.742 162.685 294.273 162.685 303.022H132.685ZM132.685 216.787V303.022H162.685V216.787H132.685Z" fill="currentColor" mask="url(#path-1-inside-1_116_0)"/>
</symbol>
</svg>
