<svg  fill="none" xmlns="http://www.w3.org/2000/svg">
<symbol id='main' viewBox="0 0 349 349">
<mask id="path-1-inside-1_2_171" fill="white">
<path fill-rule="evenodd" clip-rule="evenodd" d="M145.653 51C145.653 45.4771 150.13 41 155.653 41H194.347C199.87 41 204.347 45.4772 204.347 51V71.3091C212.184 73.5445 219.653 76.6528 226.642 80.522L241.056 66.108C244.961 62.2028 251.293 62.2028 255.198 66.108L282.892 93.8016C286.797 97.7068 286.797 104.038 282.892 107.944L268.478 122.358C272.347 129.347 275.455 136.816 277.691 144.653H298C303.523 144.653 308 149.13 308 154.653V193.347C308 198.87 303.523 203.347 298 203.347H277.691C275.67 210.431 272.936 217.215 269.572 223.614L284.453 238.495C288.358 242.4 288.358 248.732 284.453 252.637L253.637 283.453C249.732 287.358 243.4 287.358 239.495 283.453L224.614 268.572C218.214 271.937 211.431 274.67 204.347 276.691V297C204.347 302.523 199.87 307 194.347 307H155.653C150.13 307 145.653 302.523 145.653 297V276.691C137.816 274.455 130.347 271.347 123.358 267.478L108.943 281.892C105.038 285.797 98.7066 285.797 94.8013 281.892L67.1077 254.198C63.2025 250.293 63.2025 243.962 67.1077 240.056L81.522 225.642C77.6528 218.653 74.5445 211.184 72.3091 203.347H52C46.4771 203.347 42 198.87 42 193.347L42 154.653C42 149.13 46.4772 144.653 52 144.653H72.3091C74.3297 137.569 77.0635 130.786 80.4279 124.386L65.5467 109.505C61.6414 105.599 61.6414 99.2678 65.5467 95.3626L96.3623 64.5469C100.268 60.6417 106.599 60.6417 110.504 64.5469L125.386 79.428C131.785 76.0636 138.569 73.3297 145.653 71.3091V51Z"/>
</mask>
<path d="M204.347 71.3091H189.347V82.6287L200.233 85.7337L204.347 71.3091ZM226.642 80.522L219.377 93.6451L229.26 99.117L237.249 91.1287L226.642 80.522ZM241.056 66.108L251.663 76.7146L251.663 76.7146L241.056 66.108ZM255.198 66.108L265.805 55.5014L265.805 55.5014L255.198 66.108ZM282.892 93.8016L272.285 104.408L272.285 104.408L282.892 93.8016ZM282.892 107.944L293.498 118.55L293.498 118.55L282.892 107.944ZM268.478 122.358L257.871 111.751L249.883 119.739L255.355 129.623L268.478 122.358ZM277.691 144.653L263.266 148.767L266.371 159.653H277.691V144.653ZM277.691 203.347V188.347H266.371L263.266 199.233L277.691 203.347ZM269.572 223.614L256.295 216.635L251.155 226.411L258.965 234.221L269.572 223.614ZM224.614 268.572L235.221 257.966L227.411 250.156L217.634 255.295L224.614 268.572ZM204.347 276.691L200.233 262.266L189.347 265.371V276.691H204.347ZM145.653 276.691H160.653V265.371L149.767 262.266L145.653 276.691ZM123.358 267.478L130.623 254.355L120.739 248.883L112.751 256.871L123.358 267.478ZM108.943 281.892L119.55 292.499L119.55 292.499L108.943 281.892ZM94.8013 281.892L105.408 271.285L105.408 271.285L94.8013 281.892ZM67.1077 254.198L56.5011 264.805L56.5011 264.805L67.1077 254.198ZM81.522 225.642L92.1287 236.249L100.117 228.26L94.6451 218.377L81.522 225.642ZM72.3091 203.347L86.7337 199.233L83.6287 188.347H72.3091V203.347ZM42 193.347L27 193.347L42 193.347ZM42 154.653L57 154.653V154.653H42ZM72.3091 144.653V159.653H83.6287L86.7337 148.767L72.3091 144.653ZM80.4279 124.386L93.705 131.366L98.8444 121.589L91.0345 113.779L80.4279 124.386ZM65.5467 109.505L76.1533 98.8981L76.1533 98.8981L65.5467 109.505ZM65.5467 95.3626L76.1533 105.969L76.1533 105.969L65.5467 95.3626ZM96.3623 64.5469L85.7557 53.9403L85.7557 53.9403L96.3623 64.5469ZM110.504 64.5469L99.8979 75.1535L99.8979 75.1535L110.504 64.5469ZM125.386 79.428L114.779 90.0346L122.589 97.8446L132.365 92.7052L125.386 79.428ZM145.653 71.3091L149.767 85.7337L160.653 82.6287V71.3091H145.653ZM155.653 26C141.845 26 130.653 37.1929 130.653 51H160.653C160.653 53.7614 158.414 56 155.653 56V26ZM194.347 26H155.653V56H194.347V26ZM219.347 51C219.347 37.1929 208.155 26 194.347 26V56C191.586 56 189.347 53.7614 189.347 51H219.347ZM219.347 71.3091V51H189.347V71.3091H219.347ZM200.233 85.7337C206.959 87.6523 213.372 90.3207 219.377 93.6451L233.907 67.399C225.934 62.9848 217.41 59.4367 208.462 56.8844L200.233 85.7337ZM230.449 55.5014L216.035 69.9154L237.249 91.1287L251.663 76.7146L230.449 55.5014ZM265.805 55.5014C256.042 45.7383 240.213 45.7383 230.449 55.5014L251.663 76.7146C249.71 78.6672 246.544 78.6672 244.592 76.7146L265.805 55.5014ZM293.498 83.195L265.805 55.5014L244.592 76.7146L272.285 104.408L293.498 83.195ZM293.498 118.55C303.261 108.787 303.261 92.9581 293.498 83.195L272.285 104.408C270.333 102.456 270.333 99.2898 272.285 97.3371L293.498 118.55ZM279.084 132.964L293.498 118.55L272.285 97.3371L257.871 111.751L279.084 132.964ZM255.355 129.623C258.679 135.628 261.348 142.041 263.266 148.767L292.116 140.538C289.563 131.59 286.015 123.066 281.601 115.092L255.355 129.623ZM298 129.653H277.691V159.653H298V129.653ZM323 154.653C323 140.845 311.807 129.653 298 129.653V159.653C295.239 159.653 293 157.414 293 154.653H323ZM323 193.347V154.653H293V193.347H323ZM298 218.347C311.807 218.347 323 207.155 323 193.347H293C293 190.586 295.239 188.347 298 188.347V218.347ZM277.691 218.347H298V188.347H277.691V218.347ZM263.266 199.233C261.532 205.313 259.185 211.137 256.295 216.635L282.849 230.594C286.688 223.292 289.809 215.55 292.116 207.462L263.266 199.233ZM295.059 227.889L280.179 213.008L258.965 234.221L273.846 249.102L295.059 227.889ZM295.059 263.244C304.822 253.481 304.822 237.652 295.059 227.889L273.846 249.102C271.893 247.149 271.894 243.983 273.846 242.031L295.059 263.244ZM264.244 294.06L295.059 263.244L273.846 242.031L243.03 272.846L264.244 294.06ZM228.888 294.06C238.651 303.823 254.481 303.823 264.244 294.06L243.03 272.846C244.983 270.894 248.149 270.894 250.102 272.846L228.888 294.06ZM214.008 279.179L228.888 294.06L250.102 272.846L235.221 257.966L214.008 279.179ZM217.634 255.295C212.137 258.185 206.313 260.532 200.233 262.266L208.462 291.116C216.55 288.809 224.292 285.688 231.594 281.849L217.634 255.295ZM219.347 297V276.691H189.347V297H219.347ZM194.347 322C208.155 322 219.347 310.807 219.347 297H189.347C189.347 294.239 191.586 292 194.347 292V322ZM155.653 322H194.347V292H155.653V322ZM130.653 297C130.653 310.807 141.845 322 155.653 322V292C158.414 292 160.653 294.239 160.653 297H130.653ZM130.653 276.691V297H160.653V276.691H130.653ZM149.767 262.266C143.041 260.348 136.628 257.679 130.623 254.355L116.092 280.601C124.066 285.015 132.59 288.563 141.538 291.116L149.767 262.266ZM119.55 292.499L133.964 278.084L112.751 256.871L98.3369 271.285L119.55 292.499ZM84.1947 292.499C93.9578 302.262 109.787 302.262 119.55 292.499L98.3369 271.285C100.29 269.333 103.455 269.333 105.408 271.285L84.1947 292.499ZM56.5011 264.805L84.1947 292.499L105.408 271.285L77.7143 243.592L56.5011 264.805ZM56.5011 229.45C46.738 239.213 46.738 255.042 56.5011 264.805L77.7143 243.592C79.667 245.544 79.667 248.71 77.7143 250.663L56.5011 229.45ZM70.9154 215.035L56.5011 229.45L77.7143 250.663L92.1287 236.249L70.9154 215.035ZM94.6451 218.377C91.3207 212.372 88.6523 205.959 86.7337 199.233L57.8844 207.462C60.4367 216.41 63.9848 224.934 68.399 232.907L94.6451 218.377ZM52 218.347H72.3091V188.347H52V218.347ZM27 193.347C27 207.155 38.1929 218.347 52 218.347V188.347C54.7614 188.347 57 190.586 57 193.347L27 193.347ZM27 154.653L27 193.347L57 193.347L57 154.653L27 154.653ZM52 129.653C38.1929 129.653 27 140.845 27 154.653H57C57 157.414 54.7614 159.653 52 159.653V129.653ZM72.3091 129.653H52V159.653H72.3091V129.653ZM86.7337 148.767C88.468 142.687 90.8149 136.863 93.705 131.366L67.1507 117.406C63.3121 124.708 60.1914 132.45 57.8844 140.538L86.7337 148.767ZM54.9401 120.111L69.8212 134.992L91.0345 113.779L76.1533 98.8981L54.9401 120.111ZM54.9401 84.756C45.177 94.5191 45.177 110.348 54.9401 120.111L76.1533 98.8981C78.1059 100.851 78.1059 104.017 76.1533 105.969L54.9401 84.756ZM85.7557 53.9403L54.9401 84.756L76.1533 105.969L106.969 75.1535L85.7557 53.9403ZM121.111 53.9403C111.348 44.1772 95.5188 44.1772 85.7557 53.9403L106.969 75.1535C105.016 77.1062 101.85 77.1062 99.8979 75.1535L121.111 53.9403ZM135.992 68.8214L121.111 53.9403L99.8979 75.1535L114.779 90.0346L135.992 68.8214ZM132.365 92.7052C137.863 89.8149 143.687 87.468 149.767 85.7337L141.538 56.8844C133.45 59.1914 125.708 62.3122 118.406 66.1509L132.365 92.7052ZM130.653 51V71.3091H160.653V51H130.653Z" fill="currentColor" mask="url(#path-1-inside-1_2_171)"/>
<circle cx="175.625" cy="174.624" r="38.7066" stroke="currentColor" stroke-width="15"/>
</symbol>
</svg>
