<svg fill="none" xmlns="http://www.w3.org/2000/svg">
<symbol id='main'  viewBox="0 0 349 349">
<g clip-path="url(#clip0_721_26)">
<path d="M172.598 24.8541C173.197 23.0115 175.803 23.0115 176.402 24.8541L212.555 136.122C212.823 136.946 213.591 137.504 214.457 137.504H331.451C333.388 137.504 334.194 139.983 332.626 141.122L237.977 209.889C237.276 210.398 236.982 211.301 237.25 212.125L273.403 323.392C274.002 325.235 271.893 326.767 270.325 325.628L175.676 256.861C174.975 256.352 174.025 256.352 173.324 256.861L78.6746 325.628C77.1072 326.767 74.9982 325.235 75.5969 323.392L111.75 212.125C112.018 211.301 111.724 210.398 111.023 209.889L16.3736 141.122C14.8062 139.983 15.6117 137.504 17.5492 137.504H134.543C135.409 137.504 136.177 136.946 136.445 136.122L172.598 24.8541Z" stroke="currentColor" stroke-width="15" stroke-linejoin="round"/>
</g>
</symbol>
<defs>
<clipPath id="clip0_721_26">
<rect width="349" height="349" fill="white"/>
</clipPath>
</defs>
</svg>
